<?xml version="1.0" encoding="UTF-8"?>
<!DOCTYPE svg PUBLIC "-//W3C//DTD SVG 1.1//EN" "http://www.w3.org/Graphics/SVG/1.1/DTD/svg11.dtd">
<!-- Creator: CorelDRAW 2021.5 -->
<svg xmlns="http://www.w3.org/2000/svg" xml:space="preserve" width="1in" height="0.333331in" version="1.1" style="shape-rendering:geometricPrecision; text-rendering:geometricPrecision; image-rendering:optimizeQuality; fill-rule:evenodd; clip-rule:evenodd"
viewBox="0 0 1000 333.33"
 xmlns:xlink="http://www.w3.org/1999/xlink"
 xmlns:xodm="http://www.corel.com/coreldraw/odm/2003">
 <defs>
  <style type="text/css">
   <![CDATA[
    .fil0 {fill:#C4DBFF}
    .fil1 {fill:black;fill-rule:nonzero}
    .fil2 {fill:#779BD4;fill-rule:nonzero}
   ]]>
  </style>
 </defs>
 <g id="Слой_x0020_1">
  <metadata id="CorelCorpID_0Corel-Layer"/>
  <polygon class="fil0" points="173.84,86.36 199.58,108.81 225.33,131.26 215.5,167.57 205.66,203.89 173.84,203.89 142.02,203.89 132.18,167.57 122.35,131.26 148.09,108.81 "/>
  <polygon class="fil1" points="22.06,213.65 32.37,152.87 83.29,152.87 72.94,213.65 60.83,213.65 69.4,163.29 42.65,163.26 34.07,213.65 "/>
  <path id="_1" class="fil1" d="M115.65 214.88c-5.96,0 -10.93,-1.32 -14.89,-3.97 -3.97,-2.66 -6.76,-6.37 -8.38,-11.16 -1.62,-4.79 -1.9,-10.34 -0.86,-16.68 1.03,-6.22 3.11,-11.66 6.23,-16.32 3.13,-4.66 7.07,-8.26 11.78,-10.83 4.73,-2.54 9.99,-3.82 15.79,-3.82 5.94,0 10.91,1.32 14.85,3.99 3.97,2.65 6.78,6.39 8.4,11.18 1.64,4.79 1.94,10.38 0.87,16.79 -1.04,6.19 -3.15,11.57 -6.29,16.21 -3.15,4.63 -7.07,8.23 -11.78,10.77 -4.71,2.56 -9.95,3.84 -15.73,3.84zm0.72 -10.12c3.84,0 7.18,-1 10.05,-2.97 2.85,-1.99 5.21,-4.63 7.03,-7.91 1.81,-3.31 3.06,-6.93 3.74,-10.85 0.61,-3.81 0.61,-7.28 -0.02,-10.46 -0.65,-3.15 -1.98,-5.68 -4.03,-7.59 -2.05,-1.89 -4.9,-2.84 -8.55,-2.84 -3.83,0 -7.2,0.98 -10.09,2.99 -2.89,1.99 -5.22,4.64 -7.03,7.96 -1.81,3.33 -3.04,6.96 -3.69,10.92 -0.63,3.77 -0.63,7.22 0,10.36 0.62,3.14 1.95,5.67 4.01,7.54 2.05,1.89 4.9,2.84 8.57,2.84z"/>
  <path id="_2" class="fil1" d="M182.94 213.65l1.69 -10.46 2.18 0c1.73,0 3.25,-0.35 4.54,-1.06 1.3,-0.71 2.47,-1.93 3.52,-3.68 1.06,-1.75 2.05,-4.14 3,-7.19 0.95,-3.04 1.9,-6.87 2.87,-11.5l5.62 -26.91 43.64 0 -10.35 60.78 -12.14 0 8.6 -50.36 -20.02 0 -4.5 20.48c-1.08,5.05 -2.33,9.43 -3.78,13.19 -1.44,3.75 -3.13,6.85 -5.09,9.32 -1.96,2.45 -4.24,4.31 -6.82,5.54 -2.6,1.22 -5.59,1.84 -8.98,1.84l-3.97 0z"/>
  <path id="_3" class="fil1" d="M282.19 214.88c-5.96,0 -10.92,-1.32 -14.89,-3.97 -3.97,-2.66 -6.76,-6.37 -8.38,-11.16 -1.61,-4.79 -1.9,-10.34 -0.86,-16.68 1.03,-6.22 3.12,-11.66 6.24,-16.32 3.13,-4.66 7.06,-8.26 11.78,-10.83 4.73,-2.54 9.99,-3.82 15.79,-3.82 5.94,0 10.91,1.32 14.85,3.99 3.97,2.65 6.78,6.39 8.4,11.18 1.63,4.79 1.94,10.38 0.87,16.79 -1.04,6.19 -3.15,11.57 -6.29,16.21 -3.15,4.63 -7.07,8.23 -11.78,10.77 -4.71,2.56 -9.95,3.84 -15.73,3.84zm0.72 -10.12c3.84,0 7.18,-1 10.05,-2.97 2.85,-1.99 5.21,-4.63 7.03,-7.91 1.81,-3.31 3.06,-6.93 3.74,-10.85 0.61,-3.81 0.61,-7.28 -0.02,-10.46 -0.64,-3.15 -1.98,-5.68 -4.03,-7.59 -2.05,-1.89 -4.9,-2.84 -8.55,-2.84 -3.83,0 -7.2,0.98 -10.08,2.99 -2.89,1.99 -5.22,4.64 -7.03,7.96 -1.81,3.33 -3.04,6.96 -3.69,10.92 -0.63,3.77 -0.63,7.22 0,10.36 0.63,3.14 1.95,5.67 4.01,7.54 2.05,1.89 4.9,2.84 8.57,2.84z"/>
  <polygon id="_4" class="fil1" points="374.65,152.87 372.9,163.29 345.22,163.26 336.6,213.65 324.42,213.65 334.74,152.87 "/>
  <polygon id="_5" class="fil1" points="392.06,196.76 426.63,152.87 439.86,152.87 429.5,213.65 417.4,213.65 424.81,169.77 390.36,213.65 377.05,213.65 387.36,152.87 399.46,152.87 "/>
  <polygon id="_6" class="fil1" points="445.65,213.65 456.06,152.87 468.41,152.87 464.04,178.28 469.87,178.24 494.52,152.87 509.77,152.87 480.8,182.47 499.7,213.65 484.35,213.65 469.95,189.51 462.18,189.51 458.04,213.65 "/>
  <path id="_7" class="fil1" d="M533.1 214.88c-6.13,0 -11.19,-1.28 -15.17,-3.86 -4.01,-2.56 -6.8,-6.18 -8.38,-10.88 -1.6,-4.68 -1.86,-10.18 -0.78,-16.47 1.06,-6.22 3.17,-11.72 6.37,-16.45 3.17,-4.75 7.16,-8.47 11.93,-11.12 4.79,-2.67 10.05,-3.99 15.82,-3.99 3.57,0 6.92,0.56 10.04,1.69 3.11,1.13 5.78,2.93 7.96,5.37 2.2,2.43 3.73,5.59 4.58,9.47 0.85,3.88 0.81,8.56 -0.1,14.02l-0.68 4.23 -49.64 0 1.42 -8.99 37.49 0c0.57,-3.02 0.41,-5.74 -0.44,-8.13 -0.87,-2.39 -2.33,-4.27 -4.41,-5.66 -2.06,-1.37 -4.64,-2.08 -7.75,-2.08 -3.21,0 -6.19,0.82 -8.97,2.47 -2.75,1.63 -5.07,3.71 -6.93,6.24 -1.86,2.54 -3.04,5.16 -3.52,7.87l-1.43 8.22c-0.7,4.37 -0.59,7.85 0.36,10.51 0.95,2.65 2.62,4.59 5,5.8 2.39,1.22 5.4,1.82 9.01,1.82 2.35,0 4.52,-0.31 6.5,-0.95 1.99,-0.63 3.76,-1.58 5.32,-2.86 1.54,-1.28 2.85,-2.88 3.89,-4.77l11.34 1.97c-1.48,3.32 -3.63,6.24 -6.4,8.71 -2.78,2.49 -6.08,4.4 -9.88,5.78 -3.8,1.37 -7.98,2.06 -12.54,2.06z"/>
  <polygon class="fil2" points="574.32,96.98 574.32,144.32 569.95,144.32 569.95,101.56 569.68,101.56 558.56,108.95 558.56,104.42 569.76,96.98 "/>
  <path id="_1_0" class="fil2" d="M603.41 144.97c-3.33,0 -6.17,-0.96 -8.54,-2.89 -2.37,-1.91 -4.18,-4.69 -5.43,-8.33 -1.25,-3.63 -1.87,-8 -1.87,-13.11 0,-5.09 0.62,-9.44 1.88,-13.07 1.26,-3.62 3.07,-6.41 5.43,-8.34 2.37,-1.93 5.21,-2.9 8.52,-2.9 3.3,0 6.13,0.97 8.5,2.9 2.37,1.93 4.18,4.72 5.44,8.34 1.26,3.63 1.9,7.98 1.9,13.07 0,5.1 -0.63,9.47 -1.89,13.11 -1.26,3.65 -3.06,6.42 -5.43,8.33 -2.35,1.92 -5.2,2.89 -8.53,2.89zm0 -3.94c3.63,0 6.48,-1.78 8.52,-5.34 2.04,-3.56 3.07,-8.57 3.07,-15.05 0,-4.3 -0.46,-7.97 -1.4,-11.03 -0.93,-3.06 -2.27,-5.39 -3.99,-7.01 -1.72,-1.61 -3.79,-2.41 -6.2,-2.41 -3.62,0 -6.45,1.79 -8.52,5.38 -2.06,3.59 -3.09,8.61 -3.09,15.07 0,4.3 0.46,7.98 1.39,11.01 0.93,3.05 2.26,5.37 3.99,6.98 1.74,1.61 3.81,2.4 6.22,2.4z"/>
  <polygon id="_2_1" class="fil2" points="643.33,96.98 643.33,144.32 638.96,144.32 638.96,101.56 638.69,101.56 627.57,108.95 627.57,104.42 638.78,96.98 "/>
 </g>
</svg>
