<?xml version="1.0" encoding="UTF-8"?>
<!DOCTYPE svg PUBLIC "-//W3C//DTD SVG 1.1//EN" "http://www.w3.org/Graphics/SVG/1.1/DTD/svg11.dtd">
<!-- Creator: CorelDRAW 2021.5 -->
<svg xmlns="http://www.w3.org/2000/svg" xml:space="preserve" width="1in" height="1in" version="1.1" style="shape-rendering:geometricPrecision; text-rendering:geometricPrecision; image-rendering:optimizeQuality; fill-rule:evenodd; clip-rule:evenodd"
viewBox="0 0 1000 1000"
 xmlns:xlink="http://www.w3.org/1999/xlink"
 xmlns:xodm="http://www.corel.com/coreldraw/odm/2003">
 <defs>
  <style type="text/css">
   <![CDATA[
    .str0 {stroke:black;stroke-width:10;stroke-miterlimit:22.9256}
    .str1 {stroke:black;stroke-width:10;stroke-miterlimit:22.9256}
    .fil0 {fill:none}
    .fil2 {fill:white}
    .fil1 {fill:black;fill-rule:nonzero}
   ]]>
  </style>
 </defs>
 <g id="Слой_x0020_1">
  <metadata id="CorelCorpID_0Corel-Layer"/>
  <rect class="fil0 str0" x="325" y="161.67" width="333.33" height="666.67"/>
  <g id="_1475917488">
   <line class="fil0 str1" x1="325" y1="629.7" x2="115" y2= "631.67" />
  </g>
  <path class="fil1" d="M177.41 341.47l26.7 -69.61 10.13 0 28.34 69.61 -10.48 0 -8.05 -21.1 -29.31 0 -7.55 21.1 -9.77 0zm20.03 -28.58l23.72 0 -7.26 -19.3c-2.19,-5.87 -3.84,-10.71 -4.99,-14.54 -0.96,4.54 -2.24,9 -3.84,13.4l-7.63 20.43z"/>
  <path class="fil1" d="M187.04 608.14l0 -69.61 26.12 0c5.31,0 9.57,0.7 12.8,2.11 3.21,1.41 5.72,3.58 7.54,6.52 1.83,2.91 2.74,5.98 2.74,9.19 0,2.96 -0.81,5.77 -2.41,8.39 -1.61,2.63 -4.04,4.75 -7.29,6.37 4.21,1.23 7.45,3.33 9.7,6.32 2.27,2.96 3.4,6.48 3.4,10.53 0,3.27 -0.7,6.3 -2.07,9.11 -1.38,2.8 -3.08,4.96 -5.1,6.48 -2.03,1.51 -4.57,2.66 -7.61,3.44 -3.06,0.78 -6.81,1.17 -11.25,1.17l-26.56 0zm9.24 -40.35l15.05 0c4.08,0 7.02,-0.28 8.78,-0.81 2.35,-0.7 4.11,-1.86 5.3,-3.48 1.18,-1.62 1.78,-3.65 1.78,-6.09 0,-2.32 -0.55,-4.36 -1.67,-6.11 -1.1,-1.76 -2.69,-2.98 -4.75,-3.63 -2.06,-0.65 -5.59,-0.97 -10.58,-0.97l-13.92 0 0 21.1zm0 32.18l17.33 0c2.98,0 5.07,-0.11 6.29,-0.34 2.11,-0.37 3.89,-1 5.31,-1.89 1.43,-0.89 2.59,-2.19 3.52,-3.89 0.93,-1.7 1.38,-3.66 1.38,-5.88 0,-2.61 -0.67,-4.86 -2.01,-6.79 -1.33,-1.93 -3.18,-3.28 -5.54,-4.05 -2.35,-0.78 -5.75,-1.17 -10.17,-1.17l-16.11 0 0 24.02z"/>
  <path class="fil1" d="M419.5 298.28l-8.56 0 0 -54.48c-2.06,1.98 -4.76,3.94 -8.1,5.9 -3.34,1.96 -6.35,3.44 -9.01,4.41l0 -8.26c4.78,-2.24 8.96,-4.96 12.54,-8.17 3.58,-3.19 6.13,-6.28 7.62,-9.3l5.51 0 0 69.9z"/>
  <path class="fil1" d="M679.05 478.14l26.7 -69.61 10.13 0 28.34 69.61 -10.48 0 -8.05 -21.1 -29.31 0 -7.55 21.1 -9.77 0zm20.03 -28.58l23.72 0 -7.26 -19.3c-2.19,-5.87 -3.84,-10.71 -4.99,-14.54 -0.96,4.54 -2.24,9 -3.84,13.4l-7.63 20.43z"/>
  <path id="_1" class="fil1" d="M848.36 478.14l0 -69.61 26.12 0c5.31,0 9.57,0.7 12.8,2.11 3.21,1.41 5.72,3.58 7.54,6.52 1.83,2.91 2.74,5.98 2.74,9.19 0,2.96 -0.81,5.77 -2.41,8.39 -1.61,2.63 -4.04,4.75 -7.29,6.37 4.21,1.23 7.45,3.33 9.7,6.32 2.27,2.96 3.4,6.48 3.4,10.53 0,3.27 -0.7,6.3 -2.07,9.11 -1.38,2.8 -3.08,4.96 -5.1,6.48 -2.03,1.51 -4.57,2.66 -7.61,3.44 -3.06,0.78 -6.81,1.17 -11.25,1.17l-26.56 0zm9.24 -40.35l15.05 0c4.08,0 7.02,-0.28 8.78,-0.81 2.35,-0.7 4.11,-1.86 5.3,-3.48 1.18,-1.62 1.78,-3.65 1.78,-6.09 0,-2.32 -0.55,-4.36 -1.67,-6.11 -1.1,-1.76 -2.69,-2.98 -4.75,-3.63 -2.06,-0.65 -5.59,-0.97 -10.58,-0.97l-13.92 0 0 21.1zm0 32.18l17.33 0c2.98,0 5.07,-0.11 6.29,-0.34 2.11,-0.37 3.89,-1 5.31,-1.89 1.43,-0.89 2.59,-2.19 3.52,-3.89 0.93,-1.7 1.38,-3.66 1.38,-5.88 0,-2.61 -0.67,-4.86 -2.01,-6.79 -1.33,-1.93 -3.18,-3.28 -5.54,-4.05 -2.35,-0.78 -5.75,-1.17 -10.17,-1.17l-16.11 0 0 24.02z"/>
  <path id="_2" class="fil1" d="M817.86 436.56c4.2,4.59 7.84,8.07 10.92,10.47 3.06,2.38 5.96,4.17 8.69,5.33l0 2.14c-3.15,1.52 -6.17,3.45 -9.12,5.82 -2.93,2.35 -6.45,5.81 -10.53,10.37l-3.67 0c2.98,-6.37 6.09,-11.24 9.35,-14.67l-75.72 0 0 -4.8 75.72 0c-2.4,-3.08 -4.08,-5.35 -5.02,-6.84 -0.95,-1.49 -2.37,-4.1 -4.23,-7.83l3.61 0z"/>
  <g id="_1475910336">
   <g>
    <polygon class="fil1" points="904.22,498.48 657.55,498.48 659.12,491.52 905.78,491.52 "/>
   </g>
  </g>
  <g id="_1475907600">
   <line class="fil0 str1" x1="322.79" y1="363.12" x2="112.79" y2= "365.08" />
  </g>
  <g>
   <path class="fil2" d="M323.94 350.44c6.78,0 12.28,5.5 12.28,12.28 0,6.78 -5.5,12.28 -12.28,12.28 -6.78,0 -12.28,-5.5 -12.28,-12.28 0,-6.78 5.5,-12.28 12.28,-12.28z"/>
   <path id="_1_0" class="fil1" d="M341.17 362.17l-9.88 1.1 0 0 -0.01 -0.51 -0.04 -0.5 -0.06 -0.5 -0.09 -0.49 -0.11 -0.48 -0.13 -0.47 -0.15 -0.46 -0.18 -0.45 -0.2 -0.44 -0.22 -0.42 -0.24 -0.41 -0.25 -0.39 -0.27 -0.37 -0.29 -0.37 -0.3 -0.35 -0.3 -0.31 -0.32 -0.31 -0.33 -0.29 -0.34 -0.27 -0.34 -0.24 -0.35 -0.22 -0.35 -0.2 -0.36 -0.18 -0.35 -0.16 -0.34 -0.13 -0.34 -0.11 -0.33 -0.09 -0.32 -0.07 -0.31 -0.06 -0.31 -0.04 -0.3 -0.02 -0.3 -0.01 1.57 -6.97 0.96 0.02 0.96 0.07 0.92 0.12 0.89 0.16 0.87 0.2 0.83 0.24 0.8 0.27 0.78 0.31 0.74 0.34 0.7 0.36 0.68 0.39 0.65 0.42 0.62 0.44 0.59 0.46 0.56 0.48 0.54 0.5 0.51 0.54 0.47 0.55 0.44 0.56 0.42 0.59 0.39 0.6 0.35 0.62 0.33 0.63 0.3 0.65 0.26 0.66 0.23 0.69 0.2 0.69 0.16 0.71 0.13 0.72 0.09 0.73 0.06 0.75 0.02 0.75 0 0zm-18.01 16.32l1.57 -6.97 0 0 0.28 -0.01 0.26 -0.02 0.26 -0.03 0.24 -0.04 0.23 -0.05 0.24 -0.07 0.24 -0.08 0.22 -0.09 0.24 -0.11 0.25 -0.13 0.25 -0.15 0.26 -0.16 0.25 -0.18 0.26 -0.21 0.27 -0.24 0.26 -0.24 0.25 -0.26 0.26 -0.3 0.24 -0.31 0.23 -0.32 0.22 -0.35 0.21 -0.37 0.2 -0.39 0.19 -0.4 0.17 -0.42 0.15 -0.43 0.13 -0.45 0.11 -0.46 0.08 -0.47 0.06 -0.49 0.04 -0.5 0.01 -0.51 9.88 -1.1 -0.02 0.75 -0.06 0.75 -0.09 0.74 -0.13 0.73 -0.17 0.73 -0.2 0.71 -0.24 0.71 -0.28 0.7 -0.31 0.69 -0.35 0.67 -0.38 0.66 -0.41 0.65 -0.45 0.64 -0.49 0.62 -0.51 0.59 -0.56 0.59 -0.6 0.57 -0.62 0.54 -0.67 0.52 -0.71 0.51 -0.74 0.48 -0.77 0.44 -0.81 0.41 -0.84 0.38 -0.89 0.35 -0.91 0.31 -0.93 0.26 -0.96 0.22 -0.96 0.17 -0.97 0.13 -0.99 0.07 -0.98 0.02 0 0zm-16.44 -15.22l9.88 -1.1 0 0 0.01 0.51 0.04 0.5 0.06 0.5 0.09 0.49 0.11 0.48 0.13 0.47 0.15 0.46 0.18 0.45 0.2 0.44 0.22 0.43 0.24 0.41 0.25 0.4 0.27 0.37 0.28 0.37 0.3 0.35 0.31 0.33 0.31 0.3 0.33 0.29 0.34 0.27 0.34 0.24 0.34 0.22 0.35 0.2 0.35 0.18 0.35 0.16 0.34 0.14 0.33 0.11 0.33 0.09 0.32 0.07 0.31 0.06 0.31 0.04 0.3 0.02 0.3 0.01 -1.57 6.97 -0.96 -0.02 -0.96 -0.07 -0.92 -0.12 -0.89 -0.16 -0.87 -0.2 -0.83 -0.24 -0.81 -0.28 -0.77 -0.3 -0.74 -0.34 -0.7 -0.36 -0.68 -0.39 -0.65 -0.42 -0.62 -0.44 -0.59 -0.46 -0.56 -0.48 -0.54 -0.52 -0.5 -0.53 -0.47 -0.54 -0.45 -0.56 -0.42 -0.59 -0.39 -0.6 -0.35 -0.61 -0.33 -0.64 -0.3 -0.65 -0.26 -0.67 -0.23 -0.68 -0.2 -0.69 -0.16 -0.71 -0.13 -0.72 -0.09 -0.73 -0.06 -0.75 -0.02 -0.75 0 0zm18 -16.31l-1.57 6.97 0 0 -0.28 0.01 -0.26 0.02 -0.26 0.03 -0.24 0.04 -0.23 0.05 -0.24 0.07 -0.23 0.07 -0.23 0.09 -0.25 0.11 -0.25 0.13 -0.26 0.15 -0.24 0.16 -0.26 0.18 -0.27 0.22 -0.26 0.23 -0.25 0.24 -0.25 0.26 -0.26 0.3 -0.25 0.32 -0.24 0.33 -0.22 0.34 -0.21 0.37 -0.2 0.39 -0.19 0.41 -0.17 0.42 -0.15 0.43 -0.13 0.45 -0.11 0.46 -0.08 0.47 -0.06 0.49 -0.04 0.5 -0.01 0.51 -9.88 1.1 0.02 -0.75 0.06 -0.75 0.09 -0.74 0.13 -0.73 0.17 -0.73 0.2 -0.71 0.24 -0.71 0.28 -0.69 0.31 -0.69 0.35 -0.67 0.38 -0.66 0.42 -0.65 0.45 -0.63 0.48 -0.61 0.52 -0.6 0.56 -0.59 0.6 -0.57 0.63 -0.54 0.66 -0.52 0.7 -0.5 0.75 -0.48 0.78 -0.44 0.81 -0.41 0.85 -0.38 0.88 -0.35 0.91 -0.31 0.93 -0.26 0.96 -0.22 0.96 -0.17 0.97 -0.13 0.99 -0.07 0.98 -0.02 0 0z"/>
  </g>
 </g>
</svg>
