<?xml version="1.0" encoding="UTF-8"?>
<!DOCTYPE svg PUBLIC "-//W3C//DTD SVG 1.1//EN" "http://www.w3.org/Graphics/SVG/1.1/DTD/svg11.dtd">
<!-- Creator: CorelDRAW 2021.5 -->
<svg xmlns="http://www.w3.org/2000/svg" xml:space="preserve" width="1in" height="1in" version="1.1" style="shape-rendering:geometricPrecision; text-rendering:geometricPrecision; image-rendering:optimizeQuality; fill-rule:evenodd; clip-rule:evenodd"
viewBox="0 0 1000 1000"
 xmlns:xlink="http://www.w3.org/1999/xlink"
 xmlns:xodm="http://www.corel.com/coreldraw/odm/2003">
 <defs>
  <style type="text/css">
   <![CDATA[
    .str0 {stroke:black;stroke-width:10;stroke-miterlimit:22.9256}
    .str1 {stroke:black;stroke-width:10;stroke-miterlimit:22.9256}
    .fil0 {fill:none}
    .fil2 {fill:white}
    .fil1 {fill:black;fill-rule:nonzero}
   ]]>
  </style>
 </defs>
 <g id="Слой_x0020_1">
  <metadata id="CorelCorpID_0Corel-Layer"/>
  <rect class="fil0 str0" x="325" y="161.67" width="333.33" height="666.67"/>
  <path class="fil1" d="M166.67 476.67l26.7 -69.61 10.13 0 28.34 69.61 -10.48 0 -8.05 -21.1 -29.31 0 -7.55 21.1 -9.77 0zm20.03 -28.58l23.72 0 -7.26 -19.3c-2.19,-5.87 -3.84,-10.71 -4.99,-14.54 -0.96,4.54 -2.24,9 -3.84,13.4l-7.63 20.43z"/>
  <path class="fil1" d="M719.57 474.8l26.7 -69.61 10.13 0 28.34 69.61 -10.48 0 -8.05 -21.1 -29.31 0 -7.55 21.1 -9.77 0zm20.03 -28.58l23.72 0 -7.26 -19.3c-2.19,-5.87 -3.84,-10.71 -4.99,-14.54 -0.96,4.54 -2.24,9 -3.84,13.4l-7.63 20.43z"/>
  <g id="_1355034048">
   <g>
    <polygon class="fil1" points="904.22,498.48 657.55,498.48 659.12,491.52 905.78,491.52 "/>
   </g>
  </g>
  <g id="_1355030304">
   <line class="fil0 str1" x1="324.98" y1="496.37" x2="114.98" y2= "498.33" />
  </g>
  <g>
   <path class="fil2" d="M658.34 482.72c6.78,0 12.28,5.5 12.28,12.28 0,6.78 -5.5,12.28 -12.28,12.28 -6.78,0 -12.28,-5.5 -12.28,-12.28 0,-6.78 5.5,-12.28 12.28,-12.28z"/>
   <path id="_1" class="fil1" d="M675.56 494.45l-9.88 1.1 0 0 -0.01 -0.51 -0.04 -0.5 -0.06 -0.5 -0.09 -0.49 -0.11 -0.48 -0.13 -0.47 -0.15 -0.46 -0.18 -0.45 -0.2 -0.44 -0.22 -0.43 -0.24 -0.41 -0.25 -0.4 -0.27 -0.37 -0.28 -0.37 -0.3 -0.35 -0.31 -0.33 -0.31 -0.3 -0.33 -0.29 -0.34 -0.27 -0.34 -0.24 -0.34 -0.22 -0.35 -0.2 -0.35 -0.18 -0.35 -0.16 -0.34 -0.14 -0.33 -0.11 -0.33 -0.09 -0.32 -0.07 -0.31 -0.06 -0.31 -0.04 -0.3 -0.02 -0.3 -0.01 1.57 -6.97 0.96 0.02 0.96 0.07 0.92 0.12 0.89 0.16 0.87 0.2 0.83 0.24 0.81 0.28 0.77 0.3 0.74 0.34 0.7 0.36 0.68 0.39 0.65 0.42 0.62 0.44 0.59 0.46 0.56 0.48 0.54 0.52 0.5 0.53 0.47 0.54 0.45 0.56 0.42 0.59 0.39 0.6 0.35 0.61 0.33 0.64 0.3 0.65 0.26 0.67 0.23 0.68 0.2 0.69 0.16 0.71 0.13 0.72 0.09 0.73 0.06 0.75 0.02 0.75 0 0zm-18 16.31l1.57 -6.97 0 0 0.28 -0.01 0.26 -0.02 0.26 -0.03 0.24 -0.04 0.23 -0.05 0.24 -0.07 0.23 -0.07 0.23 -0.09 0.25 -0.11 0.25 -0.13 0.26 -0.15 0.24 -0.16 0.26 -0.18 0.27 -0.22 0.26 -0.23 0.25 -0.24 0.25 -0.26 0.26 -0.3 0.25 -0.32 0.24 -0.33 0.22 -0.34 0.21 -0.37 0.2 -0.39 0.19 -0.41 0.17 -0.42 0.15 -0.43 0.13 -0.45 0.11 -0.46 0.08 -0.47 0.06 -0.49 0.04 -0.5 0.01 -0.51 9.88 -1.1 -0.02 0.75 -0.06 0.75 -0.09 0.74 -0.13 0.73 -0.17 0.73 -0.2 0.71 -0.24 0.71 -0.28 0.69 -0.31 0.69 -0.35 0.67 -0.38 0.66 -0.42 0.65 -0.45 0.63 -0.48 0.61 -0.52 0.6 -0.56 0.59 -0.6 0.57 -0.63 0.54 -0.66 0.52 -0.7 0.5 -0.75 0.48 -0.78 0.44 -0.81 0.41 -0.85 0.38 -0.88 0.35 -0.91 0.31 -0.93 0.26 -0.96 0.22 -0.96 0.17 -0.97 0.13 -0.99 0.07 -0.98 0.02 0 0zm-16.44 -15.21l9.88 -1.1 0 0 0.01 0.51 0.04 0.5 0.06 0.5 0.09 0.49 0.11 0.48 0.13 0.47 0.15 0.46 0.18 0.45 0.2 0.44 0.22 0.42 0.24 0.41 0.25 0.39 0.27 0.37 0.29 0.37 0.3 0.35 0.3 0.31 0.32 0.31 0.33 0.29 0.34 0.27 0.34 0.24 0.35 0.22 0.35 0.2 0.36 0.18 0.35 0.16 0.34 0.13 0.34 0.11 0.33 0.09 0.32 0.07 0.31 0.06 0.31 0.04 0.3 0.02 0.3 0.01 -1.57 6.97 -0.96 -0.02 -0.96 -0.07 -0.92 -0.12 -0.89 -0.16 -0.87 -0.2 -0.83 -0.24 -0.8 -0.27 -0.78 -0.31 -0.74 -0.34 -0.7 -0.36 -0.68 -0.39 -0.65 -0.42 -0.62 -0.44 -0.59 -0.46 -0.56 -0.48 -0.54 -0.5 -0.51 -0.54 -0.47 -0.55 -0.44 -0.56 -0.42 -0.59 -0.39 -0.6 -0.35 -0.62 -0.33 -0.63 -0.3 -0.65 -0.26 -0.66 -0.23 -0.69 -0.2 -0.69 -0.16 -0.71 -0.13 -0.72 -0.09 -0.73 -0.06 -0.75 -0.02 -0.75 0 0zm18.01 -16.32l-1.57 6.97 0 0 -0.28 0.01 -0.26 0.02 -0.26 0.03 -0.24 0.04 -0.23 0.05 -0.24 0.07 -0.24 0.08 -0.22 0.09 -0.24 0.11 -0.25 0.13 -0.25 0.15 -0.26 0.16 -0.25 0.18 -0.26 0.21 -0.27 0.24 -0.26 0.24 -0.25 0.26 -0.26 0.3 -0.24 0.31 -0.23 0.32 -0.22 0.35 -0.21 0.37 -0.2 0.39 -0.19 0.4 -0.17 0.42 -0.15 0.43 -0.13 0.45 -0.11 0.46 -0.08 0.47 -0.06 0.49 -0.04 0.5 -0.01 0.51 -9.88 1.1 0.02 -0.75 0.06 -0.75 0.09 -0.74 0.13 -0.73 0.17 -0.73 0.2 -0.71 0.24 -0.71 0.28 -0.7 0.31 -0.69 0.35 -0.67 0.38 -0.66 0.41 -0.65 0.45 -0.64 0.49 -0.62 0.51 -0.59 0.56 -0.59 0.6 -0.57 0.62 -0.54 0.67 -0.52 0.71 -0.51 0.74 -0.48 0.77 -0.44 0.81 -0.41 0.84 -0.38 0.89 -0.35 0.91 -0.31 0.93 -0.26 0.96 -0.22 0.96 -0.17 0.97 -0.13 0.99 -0.07 0.98 -0.02 0 0z"/>
  </g>
  <g id="_1355030016">
   <g>
    <polygon class="fil1" points="779.22,401.81 717.55,401.81 719.12,394.84 780.78,394.84 "/>
   </g>
  </g>
 </g>
</svg>
