<?xml version="1.0" encoding="UTF-8"?>
<!DOCTYPE svg PUBLIC "-//W3C//DTD SVG 1.1//EN" "http://www.w3.org/Graphics/SVG/1.1/DTD/svg11.dtd">
<!-- Creator: CorelDRAW 2021.5 -->
<svg xmlns="http://www.w3.org/2000/svg" xml:space="preserve" width="1in" height="1in" version="1.1" style="shape-rendering:geometricPrecision; text-rendering:geometricPrecision; image-rendering:optimizeQuality; fill-rule:evenodd; clip-rule:evenodd"
viewBox="0 0 1000 1000"
 xmlns:xlink="http://www.w3.org/1999/xlink"
 xmlns:xodm="http://www.corel.com/coreldraw/odm/2003">
 <defs>
  <style type="text/css">
   <![CDATA[
    .str0 {stroke:black;stroke-width:10;stroke-miterlimit:22.9256}
    .str1 {stroke:black;stroke-width:10;stroke-miterlimit:22.9256}
    .fil0 {fill:none}
    .fil2 {fill:white}
    .fil1 {fill:black;fill-rule:nonzero}
   ]]>
  </style>
 </defs>
 <g id="Слой_x0020_1">
  <metadata id="CorelCorpID_0Corel-Layer"/>
  <rect class="fil0 str0" x="325" y="161.67" width="333.33" height="666.67"/>
  <g id="_1379050112">
   <line class="fil0 str1" x1="325" y1="361.96" x2="115" y2= "365" />
  </g>
  <g id="_1379051168">
   <line class="fil0 str1" x1="325" y1="629.7" x2="115" y2= "631.67" />
  </g>
  <path class="fil1" d="M177.41 341.47l26.7 -69.61 10.13 0 28.34 69.61 -10.48 0 -8.05 -21.1 -29.31 0 -7.55 21.1 -9.77 0zm20.03 -28.58l23.72 0 -7.26 -19.3c-2.19,-5.87 -3.84,-10.71 -4.99,-14.54 -0.96,4.54 -2.24,9 -3.84,13.4l-7.63 20.43z"/>
  <path class="fil1" d="M187.04 608.14l0 -69.61 26.12 0c5.31,0 9.57,0.7 12.8,2.11 3.21,1.41 5.72,3.58 7.54,6.52 1.83,2.91 2.74,5.98 2.74,9.19 0,2.96 -0.81,5.77 -2.41,8.39 -1.61,2.63 -4.04,4.75 -7.29,6.37 4.21,1.23 7.45,3.33 9.7,6.32 2.27,2.96 3.4,6.48 3.4,10.53 0,3.27 -0.7,6.3 -2.07,9.11 -1.38,2.8 -3.08,4.96 -5.1,6.48 -2.03,1.51 -4.57,2.66 -7.61,3.44 -3.06,0.78 -6.81,1.17 -11.25,1.17l-26.56 0zm9.24 -40.35l15.05 0c4.08,0 7.02,-0.28 8.78,-0.81 2.35,-0.7 4.11,-1.86 5.3,-3.48 1.18,-1.62 1.78,-3.65 1.78,-6.09 0,-2.32 -0.55,-4.36 -1.67,-6.11 -1.1,-1.76 -2.69,-2.98 -4.75,-3.63 -2.06,-0.65 -5.59,-0.97 -10.58,-0.97l-13.92 0 0 21.1zm0 32.18l17.33 0c2.98,0 5.07,-0.11 6.29,-0.34 2.11,-0.37 3.89,-1 5.31,-1.89 1.43,-0.89 2.59,-2.19 3.52,-3.89 0.93,-1.7 1.38,-3.66 1.38,-5.88 0,-2.61 -0.67,-4.86 -2.01,-6.79 -1.33,-1.93 -3.18,-3.28 -5.54,-4.05 -2.35,-0.78 -5.75,-1.17 -10.17,-1.17l-16.11 0 0 24.02z"/>
  <path class="fil1" d="M419.5 298.28l-8.56 0 0 -54.48c-2.06,1.98 -4.76,3.94 -8.1,5.9 -3.34,1.96 -6.35,3.44 -9.01,4.41l0 -8.26c4.78,-2.24 8.96,-4.96 12.54,-8.17 3.58,-3.19 6.13,-6.28 7.62,-9.3l5.51 0 0 69.9z"/>
  <path class="fil1" d="M693.35 464.62l26.7 -69.61 10.13 0 28.34 69.61 -10.48 0 -8.05 -21.1 -29.31 0 -7.55 21.1 -9.77 0zm20.03 -28.58l23.72 0 -7.26 -19.3c-2.19,-5.87 -3.84,-10.71 -4.99,-14.54 -0.96,4.54 -2.24,9 -3.84,13.4l-7.63 20.43z"/>
  <path id="_1" class="fil1" d="M814.06 464.62l0 -69.61 26.12 0c5.31,0 9.57,0.7 12.8,2.11 3.21,1.41 5.72,3.58 7.54,6.52 1.83,2.91 2.74,5.98 2.74,9.19 0,2.96 -0.81,5.77 -2.41,8.39 -1.61,2.63 -4.04,4.75 -7.29,6.37 4.21,1.23 7.45,3.33 9.7,6.32 2.27,2.96 3.4,6.48 3.4,10.53 0,3.27 -0.7,6.3 -2.07,9.11 -1.38,2.8 -3.08,4.96 -5.1,6.48 -2.03,1.51 -4.57,2.66 -7.61,3.44 -3.06,0.78 -6.81,1.17 -11.25,1.17l-26.56 0zm9.24 -40.35l15.05 0c4.08,0 7.02,-0.28 8.78,-0.81 2.35,-0.7 4.11,-1.86 5.3,-3.48 1.18,-1.62 1.78,-3.65 1.78,-6.09 0,-2.32 -0.55,-4.36 -1.67,-6.11 -1.1,-1.76 -2.69,-2.98 -4.75,-3.63 -2.06,-0.65 -5.59,-0.97 -10.58,-0.97l-13.92 0 0 21.1zm0 32.18l17.33 0c2.98,0 5.07,-0.11 6.29,-0.34 2.11,-0.37 3.89,-1 5.31,-1.89 1.43,-0.89 2.59,-2.19 3.52,-3.89 0.93,-1.7 1.38,-3.66 1.38,-5.88 0,-2.61 -0.67,-4.86 -2.01,-6.79 -1.33,-1.93 -3.18,-3.28 -5.54,-4.05 -2.35,-0.78 -5.75,-1.17 -10.17,-1.17l-16.11 0 0 24.02z"/>
  <path id="_2" class="fil1" d="M765.61 465.38l0 -3.61c3.78,1.86 6.4,3.27 7.89,4.23 1.48,0.96 3.74,2.63 6.79,5.04l0 -69.98 4.78 0 0 69.98c3.42,-3.28 8.31,-6.39 14.68,-9.37l0 3.66c-4.57,4.08 -8.02,7.6 -10.37,10.53 -2.37,2.95 -4.3,5.98 -5.77,9.12l-2.19 0c-1.17,-2.72 -2.95,-5.62 -5.35,-8.69 -2.38,-3.08 -5.88,-6.7 -10.47,-10.92z"/>
  <g id="_1379042960">
   <g>
    <polygon class="fil1" points="904.22,498.48 657.55,498.48 659.12,491.52 905.78,491.52 "/>
   </g>
  </g>
  <g>
   <path class="fil2" d="M660 481.67c6.44,0 11.67,5.22 11.67,11.67 0,6.44 -5.22,11.67 -11.67,11.67 -6.44,0 -11.67,-5.22 -11.67,-11.67 0,-6.44 5.22,-11.67 11.67,-11.67z"/>
   <path id="_1_0" class="fil1" d="M676.61 492.78l-9.88 1.1 0 0 -0.01 -0.48 -0.04 -0.48 -0.06 -0.46 -0.08 -0.46 -0.11 -0.45 -0.12 -0.44 -0.15 -0.43 -0.17 -0.43 -0.19 -0.41 -0.2 -0.4 -0.22 -0.39 -0.24 -0.37 -0.26 -0.36 -0.26 -0.33 -0.28 -0.32 -0.29 -0.3 -0.3 -0.29 -0.31 -0.27 -0.31 -0.24 -0.32 -0.23 -0.32 -0.2 -0.33 -0.19 -0.33 -0.17 -0.31 -0.15 -0.32 -0.13 -0.31 -0.11 -0.3 -0.08 -0.29 -0.07 -0.29 -0.05 -0.27 -0.04 -0.27 -0.02 -0.27 -0.01 1.57 -6.97 0.93 0.02 0.92 0.07 0.9 0.11 0.86 0.15 0.83 0.19 0.81 0.23 0.78 0.26 0.73 0.29 0.72 0.32 0.68 0.35 0.65 0.37 0.63 0.4 0.6 0.43 0.57 0.45 0.54 0.46 0.51 0.48 0.48 0.51 0.46 0.52 0.43 0.55 0.4 0.56 0.37 0.57 0.34 0.59 0.31 0.61 0.28 0.63 0.25 0.63 0.22 0.65 0.19 0.67 0.15 0.68 0.12 0.69 0.09 0.7 0.05 0.71 0.02 0.72 0 0zm-17.39 15.7l1.57 -6.97 0 0 0.26 -0.01 0.24 -0.02 0.21 -0.03 0.22 -0.04 0.2 -0.05 0.2 -0.06 0.2 -0.07 0.22 -0.09 0.21 -0.09 0.22 -0.12 0.23 -0.13 0.22 -0.15 0.24 -0.17 0.23 -0.18 0.24 -0.21 0.24 -0.23 0.24 -0.25 0.23 -0.26 0.22 -0.28 0.22 -0.31 0.21 -0.32 0.2 -0.34 0.19 -0.36 0.17 -0.37 0.15 -0.39 0.14 -0.41 0.12 -0.42 0.1 -0.43 0.08 -0.45 0.06 -0.45 0.04 -0.47 0.01 -0.48 9.88 -1.1 -0.02 0.72 -0.05 0.72 -0.09 0.71 -0.13 0.7 -0.16 0.69 -0.19 0.69 -0.23 0.68 -0.26 0.66 -0.3 0.66 -0.33 0.65 -0.36 0.63 -0.4 0.62 -0.43 0.61 -0.47 0.6 -0.5 0.58 -0.54 0.56 -0.57 0.54 -0.61 0.52 -0.65 0.51 -0.68 0.48 -0.72 0.46 -0.74 0.43 -0.79 0.4 -0.82 0.37 -0.84 0.33 -0.88 0.3 -0.91 0.26 -0.93 0.21 -0.93 0.17 -0.96 0.12 -0.95 0.07 -0.94 0.02 0 0zm-15.82 -14.6l9.88 -1.1 0 0 0.01 0.48 0.04 0.48 0.06 0.46 0.08 0.46 0.11 0.45 0.12 0.44 0.15 0.43 0.17 0.43 0.19 0.41 0.2 0.4 0.22 0.39 0.24 0.37 0.26 0.36 0.26 0.33 0.28 0.32 0.29 0.3 0.3 0.29 0.31 0.27 0.31 0.24 0.32 0.23 0.32 0.2 0.33 0.19 0.33 0.17 0.31 0.15 0.32 0.13 0.31 0.11 0.3 0.08 0.29 0.07 0.29 0.05 0.27 0.04 0.27 0.02 0.27 0.01 -1.57 6.97 -0.93 -0.02 -0.92 -0.07 -0.9 -0.11 -0.86 -0.15 -0.83 -0.19 -0.81 -0.23 -0.78 -0.26 -0.73 -0.29 -0.72 -0.32 -0.68 -0.35 -0.65 -0.37 -0.63 -0.4 -0.6 -0.43 -0.57 -0.45 -0.54 -0.46 -0.51 -0.48 -0.48 -0.51 -0.46 -0.52 -0.43 -0.55 -0.4 -0.56 -0.37 -0.57 -0.34 -0.59 -0.31 -0.61 -0.28 -0.63 -0.25 -0.63 -0.22 -0.65 -0.19 -0.67 -0.15 -0.68 -0.12 -0.69 -0.09 -0.7 -0.05 -0.71 -0.02 -0.72 0 0zm17.39 -15.7l-1.57 6.97 0 0 -0.26 0.01 -0.24 0.02 -0.21 0.03 -0.22 0.04 -0.2 0.05 -0.2 0.06 -0.2 0.07 -0.22 0.09 -0.21 0.09 -0.22 0.12 -0.23 0.13 -0.22 0.15 -0.24 0.17 -0.23 0.18 -0.24 0.21 -0.24 0.23 -0.24 0.25 -0.23 0.26 -0.22 0.28 -0.22 0.31 -0.21 0.32 -0.2 0.34 -0.19 0.36 -0.17 0.37 -0.15 0.39 -0.14 0.41 -0.12 0.42 -0.1 0.43 -0.08 0.45 -0.06 0.45 -0.04 0.47 -0.01 0.48 -9.88 1.1 0.02 -0.72 0.05 -0.72 0.09 -0.71 0.13 -0.7 0.16 -0.69 0.19 -0.69 0.23 -0.68 0.26 -0.66 0.3 -0.66 0.33 -0.65 0.36 -0.63 0.4 -0.62 0.43 -0.61 0.47 -0.6 0.5 -0.58 0.54 -0.56 0.57 -0.54 0.61 -0.52 0.65 -0.51 0.68 -0.48 0.72 -0.46 0.74 -0.43 0.79 -0.4 0.82 -0.37 0.84 -0.33 0.88 -0.3 0.91 -0.26 0.93 -0.21 0.93 -0.17 0.96 -0.12 0.95 -0.07 0.94 -0.02 0 0z"/>
  </g>
 </g>
</svg>
