<?xml version="1.0" encoding="UTF-8"?>
<!DOCTYPE svg PUBLIC "-//W3C//DTD SVG 1.1//EN" "http://www.w3.org/Graphics/SVG/1.1/DTD/svg11.dtd">
<!-- Creator: CorelDRAW 2021.5 -->
<svg xmlns="http://www.w3.org/2000/svg" xml:space="preserve" width="1in" height="1in" version="1.1" style="shape-rendering:geometricPrecision; text-rendering:geometricPrecision; image-rendering:optimizeQuality; fill-rule:evenodd; clip-rule:evenodd"
viewBox="0 0 1000 1000"
 xmlns:xlink="http://www.w3.org/1999/xlink"
 xmlns:xodm="http://www.corel.com/coreldraw/odm/2003">
 <defs>
  <style type="text/css">
   <![CDATA[
    .str0 {stroke:black;stroke-width:10;stroke-miterlimit:22.9256}
    .str1 {stroke:black;stroke-width:10;stroke-miterlimit:22.9256}
    .fil0 {fill:none}
    .fil2 {fill:white}
    .fil1 {fill:black;fill-rule:nonzero}
   ]]>
  </style>
 </defs>
 <g id="Слой_x0020_1">
  <metadata id="CorelCorpID_0Corel-Layer"/>
  <rect class="fil0 str0" x="325" y="161.67" width="333.33" height="666.67"/>
  <g id="_1389015568">
   <line class="fil0 str1" x1="325" y1="361.96" x2="115" y2= "365" />
  </g>
  <g id="_1389015280">
   <line class="fil0 str1" x1="325" y1="629.7" x2="115" y2= "631.67" />
  </g>
  <path class="fil1" d="M177.41 341.47l26.7 -69.61 10.13 0 28.34 69.61 -10.48 0 -8.05 -21.1 -29.31 0 -7.55 21.1 -9.77 0zm20.03 -28.58l23.72 0 -7.26 -19.3c-2.19,-5.87 -3.84,-10.71 -4.99,-14.54 -0.96,4.54 -2.24,9 -3.84,13.4l-7.63 20.43z"/>
  <path class="fil1" d="M187.04 608.14l0 -69.61 26.12 0c5.31,0 9.57,0.7 12.8,2.11 3.21,1.41 5.72,3.58 7.54,6.52 1.83,2.91 2.74,5.98 2.74,9.19 0,2.96 -0.81,5.77 -2.41,8.39 -1.61,2.63 -4.04,4.75 -7.29,6.37 4.21,1.23 7.45,3.33 9.7,6.32 2.27,2.96 3.4,6.48 3.4,10.53 0,3.27 -0.7,6.3 -2.07,9.11 -1.38,2.8 -3.08,4.96 -5.1,6.48 -2.03,1.51 -4.57,2.66 -7.61,3.44 -3.06,0.78 -6.81,1.17 -11.25,1.17l-26.56 0zm9.24 -40.35l15.05 0c4.08,0 7.02,-0.28 8.78,-0.81 2.35,-0.7 4.11,-1.86 5.3,-3.48 1.18,-1.62 1.78,-3.65 1.78,-6.09 0,-2.32 -0.55,-4.36 -1.67,-6.11 -1.1,-1.76 -2.69,-2.98 -4.75,-3.63 -2.06,-0.65 -5.59,-0.97 -10.58,-0.97l-13.92 0 0 21.1zm0 32.18l17.33 0c2.98,0 5.07,-0.11 6.29,-0.34 2.11,-0.37 3.89,-1 5.31,-1.89 1.43,-0.89 2.59,-2.19 3.52,-3.89 0.93,-1.7 1.38,-3.66 1.38,-5.88 0,-2.61 -0.67,-4.86 -2.01,-6.79 -1.33,-1.93 -3.18,-3.28 -5.54,-4.05 -2.35,-0.78 -5.75,-1.17 -10.17,-1.17l-16.11 0 0 24.02z"/>
  <path class="fil1" d="M429.57 290.02c-2.82,3.11 -5.9,5.44 -9.22,7 -3.32,1.56 -6.92,2.33 -10.79,2.33 -7.13,0 -12.78,-2.4 -16.96,-7.2 -3.39,-3.92 -5.09,-8.28 -5.09,-13.11 0,-4.3 1.38,-8.17 4.15,-11.62 2.77,-3.47 6.92,-6.5 12.41,-9.12 -3.16,-3.6 -5.27,-6.53 -6.32,-8.78 -1.06,-2.24 -1.59,-4.41 -1.59,-6.5 0,-4.18 1.63,-7.81 4.93,-10.89 3.27,-3.09 7.41,-4.63 12.39,-4.63 4.75,0 8.65,1.46 11.69,4.37 3.03,2.92 4.54,6.43 4.54,10.52 0,6.63 -4.41,12.3 -13.24,16.98l12.61 15.81c1.44,-2.79 2.56,-6.01 3.35,-9.69l8.85 1.91c-1.52,6.06 -3.58,11.02 -6.19,14.89 3.19,4.23 6.82,7.78 10.86,10.66l-5.74 6.77c-3.44,-2.19 -6.97,-5.44 -10.63,-9.72zm-17.5 -36.15c3.73,-2.2 6.13,-4.11 7.23,-5.77 1.1,-1.65 1.65,-3.48 1.65,-5.49 0,-2.38 -0.76,-4.33 -2.27,-5.83 -1.5,-1.51 -3.4,-2.27 -5.65,-2.27 -2.32,0 -4.26,0.74 -5.8,2.24 -1.54,1.49 -2.32,3.32 -2.32,5.49 0,1.07 0.28,2.22 0.84,3.4 0.55,1.2 1.38,2.46 2.5,3.79l3.82 4.44zm12.06 29.47l-15.59 -19.46c-4.63,2.74 -7.76,5.28 -9.37,7.63 -1.62,2.35 -2.43,4.67 -2.43,6.97 0,2.8 1.12,5.72 3.37,8.75 2.24,3.03 5.41,4.54 9.51,4.54 2.56,0 5.22,-0.78 7.94,-2.35 2.74,-1.57 4.93,-3.6 6.56,-6.08z"/>
  <path class="fil1" d="M700.82 471.47l26.7 -69.61 10.13 0 28.34 69.61 -10.48 0 -8.05 -21.1 -29.31 0 -7.55 21.1 -9.77 0zm20.03 -28.58l23.72 0 -7.26 -19.3c-2.19,-5.87 -3.84,-10.71 -4.99,-14.54 -0.96,4.54 -2.24,9 -3.84,13.4l-7.63 20.43z"/>
  <path id="_1" class="fil1" d="M799.92 471.47l0 -69.61 26.12 0c5.31,0 9.57,0.7 12.8,2.11 3.21,1.41 5.72,3.58 7.54,6.52 1.83,2.91 2.74,5.98 2.74,9.19 0,2.96 -0.81,5.77 -2.41,8.39 -1.61,2.63 -4.04,4.75 -7.29,6.37 4.21,1.23 7.45,3.33 9.7,6.32 2.27,2.96 3.4,6.48 3.4,10.53 0,3.27 -0.7,6.3 -2.07,9.11 -1.38,2.8 -3.08,4.96 -5.1,6.48 -2.03,1.51 -4.57,2.66 -7.61,3.44 -3.06,0.78 -6.81,1.17 -11.25,1.17l-26.56 0zm9.24 -40.35l15.05 0c4.08,0 7.02,-0.28 8.78,-0.81 2.35,-0.7 4.11,-1.86 5.3,-3.48 1.18,-1.62 1.78,-3.65 1.78,-6.09 0,-2.32 -0.55,-4.36 -1.67,-6.11 -1.1,-1.76 -2.69,-2.98 -4.75,-3.63 -2.06,-0.65 -5.59,-0.97 -10.58,-0.97l-13.92 0 0 21.1zm0 32.18l17.33 0c2.98,0 5.07,-0.11 6.29,-0.34 2.11,-0.37 3.89,-1 5.31,-1.89 1.43,-0.89 2.59,-2.19 3.52,-3.89 0.93,-1.7 1.38,-3.66 1.38,-5.88 0,-2.61 -0.67,-4.86 -2.01,-6.79 -1.33,-1.93 -3.18,-3.28 -5.54,-4.05 -2.35,-0.78 -5.75,-1.17 -10.17,-1.17l-16.11 0 0 24.02z"/>
  <polygon id="_2" class="fil1" points="765.81,472.63 786.03,400.69 792.92,400.69 772.7,472.63 "/>
  <g id="_1389011536">
   <g>
    <polygon class="fil1" points="904.22,498.48 657.55,498.48 659.12,491.52 905.78,491.52 "/>
   </g>
  </g>
  <g>
   <path class="fil2" d="M660 481.67c6.44,0 11.67,5.22 11.67,11.67 0,6.44 -5.22,11.67 -11.67,11.67 -6.44,0 -11.67,-5.22 -11.67,-11.67 0,-6.44 5.22,-11.67 11.67,-11.67z"/>
   <path id="_1_0" class="fil1" d="M676.61 492.78l-9.88 1.1 0 0 -0.01 -0.48 -0.04 -0.48 -0.06 -0.46 -0.08 -0.46 -0.11 -0.45 -0.12 -0.44 -0.15 -0.43 -0.17 -0.43 -0.19 -0.41 -0.2 -0.4 -0.22 -0.39 -0.24 -0.37 -0.26 -0.36 -0.26 -0.33 -0.28 -0.32 -0.29 -0.3 -0.3 -0.29 -0.31 -0.27 -0.31 -0.24 -0.32 -0.23 -0.32 -0.2 -0.33 -0.19 -0.33 -0.17 -0.31 -0.15 -0.32 -0.13 -0.31 -0.11 -0.3 -0.08 -0.29 -0.07 -0.29 -0.05 -0.27 -0.04 -0.27 -0.02 -0.27 -0.01 1.57 -6.97 0.93 0.02 0.92 0.07 0.9 0.11 0.86 0.15 0.83 0.19 0.81 0.23 0.78 0.26 0.73 0.29 0.72 0.32 0.68 0.35 0.65 0.37 0.63 0.4 0.6 0.43 0.57 0.45 0.54 0.46 0.51 0.48 0.48 0.51 0.46 0.52 0.43 0.55 0.4 0.56 0.37 0.57 0.34 0.59 0.31 0.61 0.28 0.63 0.25 0.63 0.22 0.65 0.19 0.67 0.15 0.68 0.12 0.69 0.09 0.7 0.05 0.71 0.02 0.72 0 0zm-17.39 15.7l1.57 -6.97 0 0 0.26 -0.01 0.24 -0.02 0.21 -0.03 0.22 -0.04 0.2 -0.05 0.2 -0.06 0.2 -0.07 0.22 -0.09 0.21 -0.09 0.22 -0.12 0.23 -0.13 0.22 -0.15 0.24 -0.17 0.23 -0.18 0.24 -0.21 0.24 -0.23 0.24 -0.25 0.23 -0.26 0.22 -0.28 0.22 -0.31 0.21 -0.32 0.2 -0.34 0.19 -0.36 0.17 -0.37 0.15 -0.39 0.14 -0.41 0.12 -0.42 0.1 -0.43 0.08 -0.45 0.06 -0.45 0.04 -0.47 0.01 -0.48 9.88 -1.1 -0.02 0.72 -0.05 0.72 -0.09 0.71 -0.13 0.7 -0.16 0.69 -0.19 0.69 -0.23 0.68 -0.26 0.66 -0.3 0.66 -0.33 0.65 -0.36 0.63 -0.4 0.62 -0.43 0.61 -0.47 0.6 -0.5 0.58 -0.54 0.56 -0.57 0.54 -0.61 0.52 -0.65 0.51 -0.68 0.48 -0.72 0.46 -0.74 0.43 -0.79 0.4 -0.82 0.37 -0.84 0.33 -0.88 0.3 -0.91 0.26 -0.93 0.21 -0.93 0.17 -0.96 0.12 -0.95 0.07 -0.94 0.02 0 0zm-15.82 -14.6l9.88 -1.1 0 0 0.01 0.48 0.04 0.48 0.06 0.46 0.08 0.46 0.11 0.45 0.12 0.44 0.15 0.43 0.17 0.43 0.19 0.41 0.2 0.4 0.22 0.39 0.24 0.37 0.26 0.36 0.26 0.33 0.28 0.32 0.29 0.3 0.3 0.29 0.31 0.27 0.31 0.24 0.32 0.23 0.32 0.2 0.33 0.19 0.33 0.17 0.31 0.15 0.32 0.13 0.31 0.11 0.3 0.08 0.29 0.07 0.29 0.05 0.27 0.04 0.27 0.02 0.27 0.01 -1.57 6.97 -0.93 -0.02 -0.92 -0.07 -0.9 -0.11 -0.86 -0.15 -0.83 -0.19 -0.81 -0.23 -0.78 -0.26 -0.73 -0.29 -0.72 -0.32 -0.68 -0.35 -0.65 -0.37 -0.63 -0.4 -0.6 -0.43 -0.57 -0.45 -0.54 -0.46 -0.51 -0.48 -0.48 -0.51 -0.46 -0.52 -0.43 -0.55 -0.4 -0.56 -0.37 -0.57 -0.34 -0.59 -0.31 -0.61 -0.28 -0.63 -0.25 -0.63 -0.22 -0.65 -0.19 -0.67 -0.15 -0.68 -0.12 -0.69 -0.09 -0.7 -0.05 -0.71 -0.02 -0.72 0 0zm17.39 -15.7l-1.57 6.97 0 0 -0.26 0.01 -0.24 0.02 -0.21 0.03 -0.22 0.04 -0.2 0.05 -0.2 0.06 -0.2 0.07 -0.22 0.09 -0.21 0.09 -0.22 0.12 -0.23 0.13 -0.22 0.15 -0.24 0.17 -0.23 0.18 -0.24 0.21 -0.24 0.23 -0.24 0.25 -0.23 0.26 -0.22 0.28 -0.22 0.31 -0.21 0.32 -0.2 0.34 -0.19 0.36 -0.17 0.37 -0.15 0.39 -0.14 0.41 -0.12 0.42 -0.1 0.43 -0.08 0.45 -0.06 0.45 -0.04 0.47 -0.01 0.48 -9.88 1.1 0.02 -0.72 0.05 -0.72 0.09 -0.71 0.13 -0.7 0.16 -0.69 0.19 -0.69 0.23 -0.68 0.26 -0.66 0.3 -0.66 0.33 -0.65 0.36 -0.63 0.4 -0.62 0.43 -0.61 0.47 -0.6 0.5 -0.58 0.54 -0.56 0.57 -0.54 0.61 -0.52 0.65 -0.51 0.68 -0.48 0.72 -0.46 0.74 -0.43 0.79 -0.4 0.82 -0.37 0.84 -0.33 0.88 -0.3 0.91 -0.26 0.93 -0.21 0.93 -0.17 0.96 -0.12 0.95 -0.07 0.94 -0.02 0 0z"/>
  </g>
 </g>
</svg>
